<mxfile host="app.diagrams.net" agent="Mozilla/5.0 (Macintosh; Intel Mac OS X 10_15_7) AppleWebKit/537.36 (KHTML, like Gecko) Chrome/136.0.0.0 Safari/537.36" version="27.0.3">
  <diagram name="Page-1" id="uiOJNHtUa978JBTlVVgL">
    <mxGraphModel dx="1218" dy="702" grid="1" gridSize="10" guides="1" tooltips="1" connect="1" arrows="1" fold="1" page="1" pageScale="1" pageWidth="850" pageHeight="1100" math="0" shadow="0">
      <root>
        <mxCell id="0" />
        <mxCell id="1" parent="0" />
        <mxCell id="I6tbdFONTjTNnBu6L0ua-1" value="&lt;font style=&quot;font-size: 14px;&quot;&gt;Langflow&lt;/font&gt;&lt;div&gt;&lt;font size=&quot;3&quot;&gt;&lt;br&gt;&lt;/font&gt;&lt;/div&gt;&lt;div&gt;&lt;font size=&quot;3&quot;&gt;&lt;br&gt;&lt;/font&gt;&lt;/div&gt;&lt;div&gt;&lt;font size=&quot;3&quot;&gt;&lt;br&gt;&lt;/font&gt;&lt;/div&gt;&lt;div&gt;&lt;font size=&quot;3&quot;&gt;&lt;br&gt;&lt;/font&gt;&lt;/div&gt;&lt;div&gt;&lt;font size=&quot;3&quot;&gt;&lt;br&gt;&lt;/font&gt;&lt;/div&gt;&lt;div&gt;&lt;font size=&quot;3&quot;&gt;&lt;br&gt;&lt;/font&gt;&lt;/div&gt;&lt;div&gt;&lt;font size=&quot;3&quot;&gt;&lt;br&gt;&lt;/font&gt;&lt;/div&gt;&lt;div&gt;&lt;font size=&quot;3&quot;&gt;&lt;br&gt;&lt;/font&gt;&lt;/div&gt;&lt;div&gt;&lt;font size=&quot;3&quot;&gt;&lt;br&gt;&lt;/font&gt;&lt;/div&gt;&lt;div&gt;&lt;font size=&quot;3&quot;&gt;&lt;br&gt;&lt;/font&gt;&lt;/div&gt;&lt;div&gt;&lt;br&gt;&lt;/div&gt;" style="whiteSpace=wrap;html=1;aspect=fixed;" vertex="1" parent="1">
          <mxGeometry x="55" y="135" width="270" height="270" as="geometry" />
        </mxCell>
        <mxCell id="I6tbdFONTjTNnBu6L0ua-3" value="Traceloop Tracer&lt;div&gt;&lt;br&gt;&lt;/div&gt;&lt;div&gt;&lt;br&gt;&lt;/div&gt;&lt;div&gt;&lt;br&gt;&lt;/div&gt;&lt;div&gt;&lt;br&gt;&lt;/div&gt;" style="rounded=0;whiteSpace=wrap;html=1;" vertex="1" parent="1">
          <mxGeometry x="100" y="220" width="190" height="100" as="geometry" />
        </mxCell>
        <mxCell id="I6tbdFONTjTNnBu6L0ua-5" value="Traceloop" style="rounded=0;whiteSpace=wrap;html=1;" vertex="1" parent="1">
          <mxGeometry x="595" y="242.5" width="160" height="75" as="geometry" />
        </mxCell>
        <mxCell id="I6tbdFONTjTNnBu6L0ua-8" value="OpenTelemetry SDK" style="rounded=0;whiteSpace=wrap;html=1;" vertex="1" parent="1">
          <mxGeometry x="140" y="260" width="100" height="40" as="geometry" />
        </mxCell>
        <mxCell id="I6tbdFONTjTNnBu6L0ua-9" value="Instana UI" style="rounded=0;whiteSpace=wrap;html=1;" vertex="1" parent="1">
          <mxGeometry x="655" y="465" width="170" height="80" as="geometry" />
        </mxCell>
        <mxCell id="I6tbdFONTjTNnBu6L0ua-12" style="edgeStyle=orthogonalEdgeStyle;rounded=0;orthogonalLoop=1;jettySize=auto;html=1;entryX=0;entryY=0.5;entryDx=0;entryDy=0;" edge="1" parent="1" source="I6tbdFONTjTNnBu6L0ua-10" target="I6tbdFONTjTNnBu6L0ua-9">
          <mxGeometry relative="1" as="geometry" />
        </mxCell>
        <mxCell id="I6tbdFONTjTNnBu6L0ua-10" value="Instana Backend&lt;div&gt;&lt;br&gt;&lt;/div&gt;&lt;div&gt;&lt;br&gt;&lt;/div&gt;&lt;div&gt;&lt;br&gt;&lt;/div&gt;&lt;div&gt;&lt;br&gt;&lt;/div&gt;&lt;div&gt;&lt;br&gt;&lt;/div&gt;&lt;div&gt;&lt;br&gt;&lt;/div&gt;" style="rounded=0;whiteSpace=wrap;html=1;" vertex="1" parent="1">
          <mxGeometry x="420" y="440" width="175" height="130" as="geometry" />
        </mxCell>
        <mxCell id="I6tbdFONTjTNnBu6L0ua-11" value="OTLP Acceptor" style="rounded=0;whiteSpace=wrap;html=1;" vertex="1" parent="1">
          <mxGeometry x="447.5" y="480" width="120" height="60" as="geometry" />
        </mxCell>
        <mxCell id="I6tbdFONTjTNnBu6L0ua-16" style="edgeStyle=orthogonalEdgeStyle;rounded=0;orthogonalLoop=1;jettySize=auto;html=1;entryX=0;entryY=0.5;entryDx=0;entryDy=0;exitX=0.5;exitY=1;exitDx=0;exitDy=0;" edge="1" parent="1" source="I6tbdFONTjTNnBu6L0ua-8" target="I6tbdFONTjTNnBu6L0ua-11">
          <mxGeometry relative="1" as="geometry" />
        </mxCell>
        <mxCell id="I6tbdFONTjTNnBu6L0ua-17" value="Opentelemetry URL and Headers" style="edgeLabel;html=1;align=center;verticalAlign=middle;resizable=0;points=[];" vertex="1" connectable="0" parent="I6tbdFONTjTNnBu6L0ua-16">
          <mxGeometry x="0.4211" y="-1" relative="1" as="geometry">
            <mxPoint x="-12" y="-1" as="offset" />
          </mxGeometry>
        </mxCell>
        <mxCell id="I6tbdFONTjTNnBu6L0ua-19" style="edgeStyle=orthogonalEdgeStyle;rounded=0;orthogonalLoop=1;jettySize=auto;html=1;entryX=0;entryY=0.5;entryDx=0;entryDy=0;exitX=1;exitY=0.5;exitDx=0;exitDy=0;" edge="1" parent="1" source="I6tbdFONTjTNnBu6L0ua-8" target="I6tbdFONTjTNnBu6L0ua-5">
          <mxGeometry relative="1" as="geometry" />
        </mxCell>
        <mxCell id="I6tbdFONTjTNnBu6L0ua-20" value="Traceloop API key" style="edgeLabel;html=1;align=center;verticalAlign=middle;resizable=0;points=[];" vertex="1" connectable="0" parent="I6tbdFONTjTNnBu6L0ua-19">
          <mxGeometry x="-0.1214" y="-1" relative="1" as="geometry">
            <mxPoint x="45" y="-1" as="offset" />
          </mxGeometry>
        </mxCell>
      </root>
    </mxGraphModel>
  </diagram>
</mxfile>
